<?xml version="1.0" encoding="utf-8"?>
<!-- Generator: Adobe Illustrator 25.0.0, SVG Export Plug-In . SVG Version: 6.00 Build 0)  -->
<svg version="1.1" id="Capa_1" xmlns="http://www.w3.org/2000/svg" xmlns:xlink="http://www.w3.org/1999/xlink" x="0px" y="0px"
	 viewBox="0 0 24 18" style="enable-background:new 0 0 24 18;" xml:space="preserve">
<style type="text/css">
	.st0{fill-rule:evenodd;clip-rule:evenodd;fill:#F2F0F0;}
</style>
<g transform="translate(0.000000, 0.000000)">
	<path id="_xD83D__xDD39_Icon-Color" class="st0" d="M21.9,0h-15C6.2,0,5.7,0.3,5.3,0.9l-5,7.6C0,8.8,0,9.2,0.3,9.6l5,7.6
		C5.7,17.6,6.2,18,6.9,18h15c1.1,0,2-0.9,2-2V2C23.9,0.9,23,0,21.9,0z M18.2,13.3c-0.4,0.4-1,0.4-1.4,0l-2.9-2.9L11,13.3
		c-0.4,0.4-1,0.4-1.4,0c-0.4-0.4-0.4-1,0-1.4L12.5,9L9.6,6.1c-0.4-0.4-0.4-1,0-1.4c0.4-0.4,1-0.4,1.4,0l2.9,2.9l2.9-2.9
		c0.4-0.4,1-0.4,1.4,0c0.4,0.4,0.4,1,0,1.4L15.3,9l2.9,2.9C18.6,12.3,18.6,12.9,18.2,13.3z"/>
</g>
</svg>
