<?xml version="1.0" encoding="utf-8"?>
<!-- Generator: Adobe Illustrator 25.0.0, SVG Export Plug-In . SVG Version: 6.00 Build 0)  -->
<svg version="1.1" id="Capa_1" xmlns="http://www.w3.org/2000/svg" xmlns:xlink="http://www.w3.org/1999/xlink" x="0px" y="0px"
	 viewBox="0 0 791.9 791.9" style="enable-background:new 0 0 791.9 791.9;" xml:space="preserve">
<style type="text/css">
	.st0{fill:#FFFFFF;}
</style>
<g>
	<path class="st0" d="M648.6,99.9H509.2C500.3,43.5,452.8,0,394.4,0S287.7,43.5,279.7,99.9H142.3c-26.7,0-48.4,21.8-48.4,48.4v49.4
		c0,24.7,17.8,44.5,41.6,47.4v482.5c0,35.6,28.7,64.3,64.3,64.3h392.5c35.6,0,64.3-28.7,64.3-64.3V246.1
		c23.7-3.9,41.6-23.7,41.6-47.4v-49.4C697,121.7,675.2,99.9,648.6,99.9z M394.4,36.6c38.5,0,70.2,26.7,77.1,63.3H316.4
		C324.2,64.3,355.9,36.6,394.4,36.6z M618.9,728.7c0,14.8-11.9,27.6-27.6,27.6H198.7c-14.8,0-27.6-11.9-27.6-27.6V247.2H618v481.6
		H618.9z M660.4,197.7c0,7-4.9,11.9-11.9,11.9H142.2c-7,0-11.9-4.9-11.9-11.9v-49.4c0-7,4.9-11.9,11.9-11.9h505.3
		c7,0,11.9,4.9,11.9,11.9v49.4H660.4z M253.1,661.5V349.1c0-9.9,7.9-17.8,17.8-17.8s17.8,7.9,17.8,17.8v312.4
		c0,9.9-7.9,17.8-17.8,17.8C261,680.3,253.1,671.3,253.1,661.5z M378.6,661.5V349.1c0-9.9,7.9-17.8,17.8-17.8
		c9.9,0,17.8,7.9,17.8,17.8v312.4c0,9.9-7.9,17.8-17.8,17.8C386.6,680.3,378.6,671.3,378.6,661.5z M504.2,661.5V349.1
		c0-9.9,7.9-17.8,17.8-17.8s17.8,7.9,17.8,17.8v312.4c0,9.9-7.9,17.8-17.8,17.8C513.1,680.3,504.2,671.3,504.2,661.5z"/>
</g>
</svg>
